<?xml version="1.0" standalone="no"?>
<!DOCTYPE svg PUBLIC "-//W3C//DTD SVG 20010904//EN"
 "http://www.w3.org/TR/2001/REC-SVG-20010904/DTD/svg10.dtd">
<svg version="1.0" xmlns="http://www.w3.org/2000/svg"
 width="80.000000pt" height="80.000000pt" viewBox="0 0 80.000000 80.000000"
 preserveAspectRatio="xMidYMid meet">

<g transform="translate(0.000000,80.000000) scale(0.100000,-0.100000)"
fill="#000000" stroke="none">
<path d="M179 627 c-41 -27 -99 -135 -99 -182 0 -53 37 -138 81 -189 117 -133
354 -155 474 -45 66 61 88 114 83 199 -3 60 -8 73 -32 99 -35 37 -65 47 -178
60 -66 8 -104 19 -157 46 -82 41 -125 44 -172 12z m168 -32 c55 -29 86 -38
163 -46 110 -12 149 -28 173 -68 25 -42 21 -82 -12 -127 -38 -53 -59 -70 -116
-95 -63 -28 -167 -23 -240 12 -94 44 -163 141 -173 241 -4 45 -2 50 32 83 49
46 84 46 173 0z m-204 -165 c26 -70 101 -151 168 -179 71 -31 162 -37 233 -17
45 13 70 29 108 67 37 37 48 44 42 27 -15 -49 -63 -105 -116 -133 -48 -27 -61
-30 -148 -30 -75 1 -105 5 -141 22 -120 54 -204 188 -184 291 4 21 10 30 13
22 2 -8 14 -40 25 -70z"/>
<path d="M250 510 c-35 -27 -17 -37 19 -10 17 12 31 23 31 26 0 10 -27 2 -50
-16z"/>
<path d="M315 475 c-46 -33 -66 -55 -50 -55 11 0 115 74 115 83 0 14 -15 7
-65 -28z"/>
<path d="M484 447 c-22 -19 -26 -29 -20 -51 13 -51 91 -61 113 -14 13 28 1 63
-26 77 -28 16 -36 14 -67 -12z m66 -17 c16 -16 18 -25 10 -40 -18 -33 -80 -20
-80 16 0 15 27 44 41 44 5 0 18 -9 29 -20z"/>
</g>
</svg>
