<?xml version="1.0" standalone="no"?>
<!DOCTYPE svg PUBLIC "-//W3C//DTD SVG 20010904//EN"
 "http://www.w3.org/TR/2001/REC-SVG-20010904/DTD/svg10.dtd">
<svg version="1.0" xmlns="http://www.w3.org/2000/svg"
 width="80.000000pt" height="80.000000pt" viewBox="0 0 80.000000 80.000000"
 preserveAspectRatio="xMidYMid meet">

<g transform="translate(0.000000,80.000000) scale(0.100000,-0.100000)"
fill="#000000" stroke="none">
<path d="M342 717 c-50 -19 -102 -65 -123 -111 -36 -79 -15 -184 48 -242 l27
-25 -47 -95 c-26 -52 -47 -99 -47 -104 0 -6 17 -10 38 -10 31 0 43 -6 61 -31
28 -38 34 -33 76 59 l32 67 39 -77 c21 -43 42 -78 46 -78 3 0 16 14 28 30 18
25 28 30 61 30 21 0 39 2 39 4 0 3 -20 46 -45 97 -25 51 -45 98 -45 104 0 6
12 22 26 36 105 96 73 273 -60 335 -55 26 -103 29 -154 11z m175 -43 c56 -46
75 -78 81 -132 11 -118 -68 -211 -182 -214 -54 -1 -83 8 -124 39 -89 67 -97
213 -15 289 44 41 82 55 145 51 46 -3 65 -9 95 -33z m-167 -365 c0 -5 -18 -46
-41 -90 -30 -60 -44 -79 -55 -75 -9 3 -20 6 -25 6 -5 0 11 40 36 89 38 76 47
88 65 84 11 -3 20 -9 20 -14z m200 -66 c31 -66 37 -89 28 -95 -22 -13 -32 -4
-70 68 -47 87 -48 108 -6 113 4 1 25 -38 48 -86z m-154 0 c-18 -38 -41 -86
-50 -107 l-17 -40 -20 21 -20 20 43 86 c38 78 45 87 70 87 l28 0 -34 -67z m88
-19 c40 -85 42 -96 22 -114 -13 -10 -21 0 -51 60 -33 65 -35 75 -25 101 7 16
14 29 15 29 2 0 19 -34 39 -76z"/>
<path d="M343 644 c-96 -48 -97 -200 -2 -250 66 -34 152 -12 190 49 28 45 22
127 -12 163 -51 55 -115 68 -176 38z m127 -19 c42 -22 60 -53 60 -106 0 -53
-23 -90 -72 -115 -88 -46 -200 54 -168 151 24 74 109 107 180 70z"/>
</g>
</svg>
