<?xml version="1.0" standalone="no"?>
<!DOCTYPE svg PUBLIC "-//W3C//DTD SVG 20010904//EN"
 "http://www.w3.org/TR/2001/REC-SVG-20010904/DTD/svg10.dtd">
<svg version="1.0" xmlns="http://www.w3.org/2000/svg"
 width="80.000000pt" height="80.000000pt" viewBox="0 0 80.000000 80.000000"
 preserveAspectRatio="xMidYMid meet">

<g transform="translate(0.000000,80.000000) scale(0.100000,-0.100000)"
fill="#000000" stroke="none">
<path d="M243 621 l-172 -76 -1 -83 c0 -78 1 -83 24 -94 14 -6 27 -17 30 -25
8 -20 -10 -50 -34 -58 -16 -5 -20 -15 -20 -51 l0 -44 65 0 c37 0 65 4 65 10 0
6 -25 10 -55 10 -54 0 -55 0 -55 30 0 19 5 30 14 30 43 0 51 73 12 106 -23 21
-26 30 -26 89 l0 65 233 -2 232 -3 3 -87 c4 -121 22 -112 22 10 0 72 -5 107
-19 137 -22 50 -93 115 -124 114 -12 -1 -99 -35 -194 -78z m258 10 c81 -81 81
-81 -153 -81 -111 0 -199 2 -197 5 10 9 275 125 288 125 8 0 36 -22 62 -49z"/>
<path d="M390 455 c-25 -30 14 -74 53 -60 19 8 27 37 15 59 -11 20 -51 21 -68
1z m53 -11 c9 -10 -4 -34 -18 -34 -17 0 -28 17 -20 30 7 11 28 13 38 4z"/>
<path d="M206 414 c-33 -32 -8 -84 39 -84 15 0 31 10 41 25 15 23 15 27 0 50
-19 29 -56 33 -80 9z m68 -19 c9 -25 -5 -45 -30 -45 -26 0 -40 20 -30 45 3 8
16 15 30 15 13 0 26 -7 30 -15z"/>
<path d="M607 333 c-4 -3 12 -19 34 -35 62 -45 86 -119 53 -166 -15 -21 -20
-22 -207 -22 -232 0 -242 3 -235 82 5 49 28 91 61 112 27 17 66 -11 96 -69 14
-27 27 -52 29 -54 1 -2 5 -1 9 2 11 12 -40 108 -68 128 -38 26 -66 24 -99 -9
-52 -52 -65 -148 -25 -187 24 -25 25 -25 228 -25 182 0 206 2 220 18 50 55 18
168 -61 214 -16 10 -32 15 -35 11z"/>
<path d="M420 323 c0 -5 14 -16 31 -26 20 -11 38 -34 52 -67 21 -50 45 -70 31
-27 -16 51 -46 98 -74 112 -33 17 -40 18 -40 8z"/>
<path d="M510 320 c0 -5 6 -10 14 -10 21 0 76 -67 83 -101 6 -30 23 -40 23
-14 0 31 -28 82 -59 108 -33 27 -61 35 -61 17z"/>
</g>
</svg>
