<?xml version="1.0" standalone="no"?>
<!DOCTYPE svg PUBLIC "-//W3C//DTD SVG 20010904//EN"
 "http://www.w3.org/TR/2001/REC-SVG-20010904/DTD/svg10.dtd">
<svg version="1.0" xmlns="http://www.w3.org/2000/svg"
 width="80.000000pt" height="80.000000pt" viewBox="0 0 80.000000 80.000000"
 preserveAspectRatio="xMidYMid meet">

<g transform="translate(0.000000,80.000000) scale(0.100000,-0.100000)"
fill="#000000" stroke="none">
<path d="M255 710 c-13 -21 -8 -71 9 -89 12 -13 15 -27 11 -41 -5 -16 -3 -21
6 -18 23 7 22 45 -2 77 -21 29 -21 31 -5 55 14 22 14 26 2 26 -8 0 -18 -5 -21
-10z"/>
<path d="M342 708 c-18 -18 -14 -57 8 -85 15 -19 17 -30 9 -44 -13 -24 6 -26
20 -2 7 12 3 28 -12 55 -19 31 -20 41 -9 58 6 11 12 22 12 25 0 9 -16 5 -28
-7z"/>
<path d="M430 585 c0 -3 12 -10 26 -15 14 -6 28 -19 31 -30 3 -11 14 -22 25
-26 10 -3 24 -16 29 -28 6 -12 20 -26 32 -31 12 -6 23 -20 25 -32 l3 -23 -250
0 c-235 0 -251 1 -251 18 0 23 19 42 42 42 14 0 18 8 18 35 0 27 6 37 28 49
24 13 25 15 6 16 -26 0 -54 -29 -54 -57 0 -11 -10 -25 -25 -31 -16 -8 -28 -23
-31 -42 -4 -16 -11 -30 -16 -30 -10 0 -2 -60 15 -105 19 -53 56 -101 102 -134
27 -19 45 -40 45 -52 0 -18 8 -19 125 -19 l125 0 0 25 c0 14 8 29 19 35 28 14
29 13 33 -17 4 -39 40 -55 114 -51 92 5 95 11 92 137 l-3 106 -53 3 c-52 3
-53 4 -47 30 7 34 -27 108 -55 117 -11 3 -20 10 -20 15 0 18 -91 100 -110 100
-11 0 -20 -2 -20 -5z m190 -214 c0 -30 -14 -41 -51 -41 l-39 0 0 -69 c0 -68
-1 -70 -34 -90 -29 -18 -49 -21 -148 -21 l-115 0 -45 35 c-29 21 -56 54 -72
87 l-27 53 101 3 c131 4 132 22 1 22 -79 0 -100 3 -105 15 -5 13 29 15 264 15
157 0 270 -4 270 -9z m100 -156 c0 -83 -2 -96 -19 -105 -31 -16 -126 -13 -141
5 -11 13 -3 15 59 15 41 0 71 4 71 10 0 6 -30 10 -70 10 l-70 0 0 80 0 80 85
0 85 0 0 -95z m-260 -95 c0 -6 -43 -10 -110 -10 -67 0 -110 4 -110 10 0 6 43
10 110 10 67 0 110 -4 110 -10z"/>
</g>
</svg>
