<?xml version="1.0" standalone="no"?>
<!DOCTYPE svg PUBLIC "-//W3C//DTD SVG 20010904//EN"
 "http://www.w3.org/TR/2001/REC-SVG-20010904/DTD/svg10.dtd">
<svg version="1.0" xmlns="http://www.w3.org/2000/svg"
 width="80.000000pt" height="80.000000pt" viewBox="0 0 80.000000 80.000000"
 preserveAspectRatio="xMidYMid meet">

<g transform="translate(0.000000,80.000000) scale(0.100000,-0.100000)"
fill="#000000" stroke="none">
<path d="M63 644 c-3 -9 6 -41 20 -70 26 -53 27 -60 27 -240 0 -109 4 -193 10
-205 14 -26 66 -26 80 0 6 12 10 97 10 206 0 109 4 194 10 206 11 20 -3 28
-15 9 -3 -5 -24 -10 -45 -10 -36 0 -41 4 -60 40 -27 53 -26 70 5 70 17 0 25
-6 25 -17 1 -17 1 -17 14 0 16 21 26 22 26 2 0 -8 5 -15 10 -15 6 0 10 6 10
14 0 8 6 17 13 19 6 3 -21 6 -61 6 -58 1 -74 -2 -79 -15z m127 -154 c0 -27 -3
-30 -30 -30 -27 0 -30 3 -30 30 0 27 3 30 30 30 27 0 30 -3 30 -30z m-2 -197
l-3 -158 -25 0 -25 0 -3 158 -3 157 31 0 31 0 -3 -157z"/>
<path d="M242 618 l3 -43 70 -6 c39 -3 65 -6 58 -7 -7 -1 -28 -16 -48 -34
-105 -91 -109 -255 -8 -350 97 -92 232 -90 328 7 102 101 102 229 -1 332 l-52
52 62 3 61 3 3 43 3 42 -241 0 -241 0 3 -42z m458 2 l0 -30 -220 0 -220 0 0
30 0 30 220 0 220 0 0 -30z m-100 -84 c63 -41 94 -97 98 -175 4 -80 -22 -139
-84 -186 -38 -29 -44 -31 -131 -30 -81 1 -96 5 -131 28 -58 38 -96 119 -90
192 7 78 48 141 118 178 48 25 63 28 118 24 45 -3 74 -12 102 -31z"/>
<path d="M415 506 c-45 -19 -92 -78 -100 -124 -17 -105 64 -202 169 -202 83 0
166 85 166 170 0 116 -129 202 -235 156z m135 -24 c103 -51 108 -201 8 -262
-63 -38 -156 -19 -199 41 -33 46 -34 130 -2 175 43 61 125 80 193 46z"/>
<path d="M411 433 c-17 -16 -33 -40 -37 -55 -9 -42 9 -33 28 12 13 31 23 42
47 46 34 7 42 24 11 24 -11 0 -33 -12 -49 -27z"/>
</g>
</svg>
