<?xml version="1.0" standalone="no"?>
<!DOCTYPE svg PUBLIC "-//W3C//DTD SVG 20010904//EN"
 "http://www.w3.org/TR/2001/REC-SVG-20010904/DTD/svg10.dtd">
<svg version="1.0" xmlns="http://www.w3.org/2000/svg"
 width="80.000000pt" height="80.000000pt" viewBox="0 0 80.000000 80.000000"
 preserveAspectRatio="xMidYMid meet">

<g transform="translate(0.000000,80.000000) scale(0.100000,-0.100000)"
fill="#000000" stroke="none">
<path d="M422 659 c-131 -22 -290 -124 -353 -225 l-21 -34 32 -39 c55 -70 133
-133 207 -167 69 -33 206 -65 219 -52 3 4 -9 26 -27 49 l-34 42 29 21 c16 11
49 37 73 57 l44 36 37 -18 c38 -20 102 -26 102 -10 0 5 -19 26 -42 46 l-43 36
43 40 c23 22 42 42 42 44 0 11 -73 4 -106 -10 l-35 -15 -67 51 c-37 29 -69 55
-70 60 -2 5 10 27 27 48 17 21 31 42 31 45 0 7 -19 6 -88 -5z m48 -15 c0 -3
-9 -19 -21 -35 -17 -25 -23 -27 -41 -18 -16 9 -41 5 -27 -4 2 -1 29 -19 59
-38 30 -20 83 -60 118 -89 l63 -53 -43 -44 c-24 -25 -78 -68 -120 -96 -76 -49
-104 -78 -53 -55 21 9 27 8 44 -13 30 -35 26 -42 -21 -34 -106 18 -236 90
-304 168 -57 66 -57 68 -16 120 70 88 174 153 292 182 67 16 70 17 70 9z m220
-178 c0 -3 -14 -14 -31 -27 -24 -16 -33 -19 -42 -10 -9 10 -7 16 7 27 18 13
66 20 66 10z m-4 -134 c-7 -6 -76 18 -76 27 0 4 5 12 12 19 9 9 18 6 40 -15
15 -15 26 -28 24 -31z"/>
<path d="M200 505 c0 -4 9 -18 20 -32 25 -32 25 -59 0 -100 -23 -39 -10 -44
18 -8 22 27 39 31 75 14 21 -9 28 -6 60 26 20 20 37 38 37 40 0 12 -56 12 -98
1 l-52 -13 -17 35 c-16 32 -43 55 -43 37z m154 -87 c-10 -13 -19 -24 -19 -25
-1 -1 -19 3 -40 10 l-39 12 39 12 c22 6 49 12 59 12 19 1 19 1 0 -21z"/>
<path d="M137 444 c-12 -12 -8 -42 6 -47 21 -8 39 8 35 29 -3 19 -29 30 -41
18z m33 -18 c0 -11 -19 -15 -25 -6 -3 5 1 10 9 10 9 0 16 -2 16 -4z"/>
</g>
</svg>
