<?xml version="1.0" standalone="no"?>
<!DOCTYPE svg PUBLIC "-//W3C//DTD SVG 20010904//EN"
 "http://www.w3.org/TR/2001/REC-SVG-20010904/DTD/svg10.dtd">
<svg version="1.0" xmlns="http://www.w3.org/2000/svg"
 width="80.000000pt" height="80.000000pt" viewBox="0 0 80.000000 80.000000"
 preserveAspectRatio="xMidYMid meet">

<g transform="translate(0.000000,80.000000) scale(0.100000,-0.100000)"
fill="#000000" stroke="none">
<path d="M150 665 c0 -38 -5 -50 -27 -70 l-28 -23 -3 -198 c-4 -216 2 -245 49
-269 33 -17 219 -21 219 -5 0 6 -40 10 -100 10 -94 0 -103 2 -125 25 -14 13
-25 35 -25 49 l0 25 128 4 127 3 -127 2 -128 2 0 135 0 135 185 0 185 0 0 35
c0 24 -9 45 -30 68 -23 27 -30 44 -30 76 l0 41 -135 0 -135 0 0 -45z m61 8 c1
-17 2 -17 6 0 6 24 63 24 64 0 1 -17 2 -17 6 0 3 11 14 17 34 17 21 0 29 -5
29 -17 1 -17 1 -17 14 0 7 9 21 17 30 17 13 0 17 -7 14 -31 l-3 -30 -118 -2
-117 -2 0 33 c0 25 4 32 20 32 12 0 20 -7 21 -17z m229 -93 c11 -11 20 -31 20
-45 l0 -25 -175 0 -175 0 0 25 c0 14 9 34 20 45 18 18 33 20 155 20 122 0 137
-2 155 -20z"/>
<path d="M410 268 l0 -179 148 3 147 3 0 174 0 174 -147 2 -148 1 0 -178z
m145 2 l64 0 3 77 c3 83 1 80 58 74 6 -1 10 -60 10 -156 l0 -155 -135 0 -135
0 0 154 0 155 33 3 32 3 3 -77 3 -78 64 0z m43 151 c8 -1 12 -21 12 -66 l0
-65 -50 0 -50 0 0 68 0 68 38 -2 c20 -1 43 -3 50 -3z"/>
<path d="M222 381 c3 -29 13 -60 23 -71 23 -25 76 -26 98 -2 42 46 1 108 -77
119 l-49 6 5 -52z m106 2 c13 -19 16 -53 4 -53 -4 0 -26 19 -47 41 l-40 42 35
-7 c19 -3 41 -14 48 -23z m-17 -76 c-9 -9 -51 8 -63 27 -4 6 -8 22 -8 36 0 23
2 23 40 -15 23 -23 36 -43 31 -48z"/>
</g>
</svg>
