<?xml version="1.0" standalone="no"?>
<!DOCTYPE svg PUBLIC "-//W3C//DTD SVG 20010904//EN"
 "http://www.w3.org/TR/2001/REC-SVG-20010904/DTD/svg10.dtd">
<svg version="1.0" xmlns="http://www.w3.org/2000/svg"
 width="80.000000pt" height="80.000000pt" viewBox="0 0 80.000000 80.000000"
 preserveAspectRatio="xMidYMid meet">

<g transform="translate(0.000000,80.000000) scale(0.100000,-0.100000)"
fill="#000000" stroke="none">
<path d="M362 714 c-12 -8 -22 -24 -22 -34 0 -11 -9 -24 -20 -30 -11 -6 -29
-29 -40 -50 -16 -30 -26 -40 -45 -40 -24 0 -25 -3 -25 -60 0 -47 3 -60 15 -60
13 0 15 -22 15 -140 0 -166 9 -193 69 -211 21 -6 75 -10 119 -8 73 4 85 7 109
32 28 27 28 29 31 175 3 113 7 149 18 155 9 5 14 26 14 62 0 54 0 55 -30 55
-24 0 -33 7 -50 40 -11 21 -29 44 -40 50 -11 6 -20 17 -20 25 0 21 -36 55 -58
55 -10 0 -28 -7 -40 -16z m66 -16 c7 -7 12 -18 12 -25 0 -8 16 -29 35 -49 58
-58 51 -64 -75 -64 -126 0 -136 8 -75 66 19 18 35 39 35 46 0 19 20 38 40 38
9 0 21 -5 28 -12z m150 -195 l3 -43 -175 0 -176 0 0 38 c0 21 3 41 6 45 3 3
81 5 172 4 l167 -2 3 -42z m-28 -198 c0 -144 -8 -176 -47 -194 -35 -16 -168
-14 -202 4 -34 17 -41 33 -41 91 l0 44 40 0 c22 0 40 5 40 10 0 6 -18 10 -40
10 -29 0 -40 4 -40 15 0 11 11 15 40 15 22 0 40 5 40 10 0 6 -18 10 -40 10
-29 0 -40 4 -40 15 0 11 11 15 40 15 22 0 40 5 40 10 0 6 -18 10 -40 10 -39 0
-40 1 -40 35 l0 35 145 0 145 0 0 -135z"/>
<path d="M490 290 c0 -60 4 -100 10 -100 6 0 10 40 10 100 0 60 -4 100 -10
100 -6 0 -10 -40 -10 -100z"/>
</g>
</svg>
