<?xml version="1.0" standalone="no"?>
<!DOCTYPE svg PUBLIC "-//W3C//DTD SVG 20010904//EN"
 "http://www.w3.org/TR/2001/REC-SVG-20010904/DTD/svg10.dtd">
<svg version="1.0" xmlns="http://www.w3.org/2000/svg"
 width="80.000000pt" height="80.000000pt" viewBox="0 0 80.000000 80.000000"
 preserveAspectRatio="xMidYMid meet">

<g transform="translate(0.000000,80.000000) scale(0.100000,-0.100000)"
fill="#000000" stroke="none">
<path d="M214 726 c-3 -8 2 -28 10 -45 30 -57 24 -107 -25 -211 -42 -90 -44
-99 -44 -185 0 -74 4 -97 23 -132 12 -23 22 -45 22 -48 0 -3 -16 -5 -35 -5
-19 0 -35 -4 -35 -10 0 -6 97 -10 270 -10 173 0 270 4 270 10 0 6 -16 10 -35
10 -31 0 -35 3 -35 26 0 14 9 33 20 42 21 17 82 167 72 177 -3 3 -79 5 -169 5
-128 0 -164 -3 -159 -12 2 -7 14 -43 25 -79 12 -36 30 -74 41 -84 11 -10 20
-31 20 -47 l0 -29 -112 3 -112 3 -25 50 c-22 42 -26 63 -26 135 1 78 4 93 42
175 22 50 44 100 48 113 5 19 13 22 56 22 38 0 49 -3 49 -16 0 -14 75 -192 86
-203 2 -2 7 -2 10 2 3 3 -13 46 -35 96 -45 99 -50 142 -25 195 28 58 18 66
-91 66 -73 0 -97 -3 -101 -14z m182 -18 c-2 -7 -10 -30 -17 -51 -12 -38 -13
-38 -62 -35 -49 3 -49 3 -67 51 l-18 47 85 0 c64 0 83 -3 79 -12z m274 -384
c0 -3 -5 -14 -10 -25 -10 -17 -22 -19 -130 -19 -108 0 -120 2 -130 19 -5 11
-10 22 -10 25 0 3 63 6 140 6 77 0 140 -3 140 -6z m-31 -93 c-18 -52 -39 -62
-115 -59 -65 3 -69 5 -91 37 -13 19 -23 38 -23 42 0 5 54 9 119 9 l120 0 -10
-29z m-59 -107 c0 -24 -2 -25 -52 -22 -46 3 -53 6 -56 26 -3 21 0 22 52 22 53
0 56 -1 56 -26z"/>
</g>
</svg>
