<?xml version="1.0" standalone="no"?>
<!DOCTYPE svg PUBLIC "-//W3C//DTD SVG 20010904//EN"
 "http://www.w3.org/TR/2001/REC-SVG-20010904/DTD/svg10.dtd">
<svg version="1.0" xmlns="http://www.w3.org/2000/svg"
 width="80.000000pt" height="80.000000pt" viewBox="0 0 80.000000 80.000000"
 preserveAspectRatio="xMidYMid meet">

<g transform="translate(0.000000,80.000000) scale(0.100000,-0.100000)"
fill="#000000" stroke="none">
<path d="M454 701 c-43 -26 -54 -66 -54 -187 0 -101 -1 -104 -22 -104 -46 0
-96 20 -101 40 -4 17 -14 20 -57 20 -43 0 -53 -3 -57 -20 -3 -11 -12 -20 -20
-20 -7 0 -25 -11 -38 -25 -22 -21 -25 -33 -25 -103 0 -84 8 -102 48 -102 13 0
40 -13 59 -30 43 -38 73 -38 116 0 30 26 43 30 91 30 51 0 56 2 62 24 8 31
-12 92 -42 132 -20 28 -22 34 -9 44 12 10 15 38 15 127 0 113 0 115 29 144 38
37 82 39 116 4 25 -24 25 -25 25 -230 0 -130 -4 -205 -10 -205 -6 0 -10 71
-10 193 0 215 -6 237 -60 237 -53 0 -60 -18 -58 -153 l2 -122 5 118 c5 102 9
121 25 133 17 12 23 12 40 0 20 -13 21 -24 24 -210 2 -170 0 -196 -13 -196 -9
0 -15 -9 -15 -25 0 -22 -4 -25 -35 -25 -34 0 -35 -1 -35 -40 l0 -40 130 0 130
0 0 40 c0 39 -1 40 -35 40 -29 0 -35 4 -35 20 0 11 -7 23 -15 26 -13 5 -15 38
-15 210 l0 204 -27 30 c-36 40 -86 48 -129 21z m-194 -261 c0 -5 -18 -10 -40
-10 -22 0 -40 5 -40 10 0 6 18 10 40 10 22 0 40 -4 40 -10z m90 -53 c75 -39
121 -159 66 -173 -44 -11 -91 -1 -94 21 -6 34 -43 65 -76 65 -34 0 -76 -34
-76 -61 0 -24 -16 -32 -46 -25 -23 6 -24 10 -24 85 0 106 6 111 119 111 72 0
96 -4 131 -23z m-56 -129 c9 -12 16 -30 16 -38 0 -25 -38 -60 -65 -60 -27 0
-65 35 -65 60 0 32 30 60 65 60 24 0 39 -7 49 -22z m324 -50 c-3 -7 -21 -14
-41 -16 -28 -2 -37 1 -37 12 0 12 11 16 41 16 28 0 39 -4 37 -12z m72 -58 l0
-30 -110 0 -110 0 0 30 0 30 110 0 110 0 0 -30z"/>
<path d="M130 340 c0 -16 5 -30 10 -30 6 0 10 14 10 30 0 17 -4 30 -10 30 -5
0 -10 -13 -10 -30z"/>
<path d="M308 113 c23 -2 59 -2 80 0 20 2 1 4 -43 4 -44 0 -61 -2 -37 -4z"/>
</g>
</svg>
