<?xml version="1.0" standalone="no"?>
<!DOCTYPE svg PUBLIC "-//W3C//DTD SVG 20010904//EN"
 "http://www.w3.org/TR/2001/REC-SVG-20010904/DTD/svg10.dtd">
<svg version="1.0" xmlns="http://www.w3.org/2000/svg"
 width="60.000000pt" height="60.000000pt" viewBox="0 0 60.000000 60.000000"
 preserveAspectRatio="xMidYMid meet">

<g transform="translate(0.000000,60.000000) scale(0.100000,-0.100000)"
fill="#000000" stroke="none">
<path d="M224 446 c-17 -8 -40 -26 -52 -41 -86 -109 29 -263 158 -212 l38 15
36 -36 c28 -29 38 -34 48 -24 10 10 5 20 -24 48 l-36 36 15 38 c28 70 -5 148
-73 176 -41 17 -70 17 -110 0z m105 -40 c67 -35 65 -143 -4 -174 -91 -41 -179
51 -131 137 26 47 84 63 135 37z"/>
</g>
</svg>
