<?xml version="1.0" standalone="no"?>
<!DOCTYPE svg PUBLIC "-//W3C//DTD SVG 20010904//EN"
 "http://www.w3.org/TR/2001/REC-SVG-20010904/DTD/svg10.dtd">
<svg version="1.0" xmlns="http://www.w3.org/2000/svg"
 width="80.000000pt" height="80.000000pt" viewBox="0 0 80.000000 80.000000"
 preserveAspectRatio="xMidYMid meet">

<g transform="translate(0.000000,80.000000) scale(0.100000,-0.100000)"
fill="#000000" stroke="none">
<path d="M360 686 c0 -9 -18 -15 -58 -19 -104 -9 -171 -62 -198 -154 -30 -103
4 -226 81 -290 46 -40 175 -95 175 -75 0 5 -28 19 -62 32 -122 44 -197 157
-185 277 12 113 77 180 184 190 57 5 60 4 66 -18 10 -35 8 -99 -1 -99 -12 0
-42 34 -42 48 0 7 -4 12 -10 12 -17 0 -11 -28 13 -56 39 -45 106 -34 127 21
13 34 -1 38 -21 6 -10 -17 -23 -31 -28 -31 -11 0 -21 102 -11 114 5 5 35 7 68
4 84 -6 132 -39 170 -118 31 -66 49 -72 27 -9 -34 95 -113 149 -219 149 -43 0
-56 3 -56 15 0 8 -4 15 -10 15 -5 0 -10 -6 -10 -14z"/>
<path d="M223 568 c-35 -39 -53 -85 -53 -138 0 -56 24 -125 40 -115 6 4 4 17
-6 37 -31 60 -19 143 28 195 11 12 18 27 16 33 -2 6 -12 2 -25 -12z"/>
<path d="M651 436 c-26 -15 -50 -51 -51 -78 0 -21 39 -25 72 -7 18 10 48 65
48 89 0 14 -40 12 -69 -4z m42 -23 c-10 -29 -35 -53 -55 -53 -25 0 -23 16 7
45 29 30 57 34 48 8z"/>
<path d="M516 398 c-22 -31 -20 -90 4 -120 40 -51 102 -59 151 -19 l23 18 -32
17 c-17 9 -42 16 -57 16 -20 0 -25 5 -25 25 0 30 -26 85 -40 85 -5 0 -16 -10
-24 -22z m40 -44 c5 -26 2 -40 -9 -51 -14 -15 -16 -14 -23 10 -7 31 2 77 16
77 5 0 12 -16 16 -36z m93 -73 c11 -7 10 -11 -7 -20 -37 -20 -93 -7 -78 18 8
13 65 14 85 2z"/>
<path d="M411 339 c-25 -41 -28 -115 -5 -148 16 -22 15 -24 -22 -62 -45 -46
-25 -54 22 -8 31 30 32 30 62 15 17 -9 41 -16 53 -16 32 0 111 40 106 54 -7
21 -68 48 -106 48 -35 -1 -38 1 -33 23 5 31 -14 88 -38 110 -18 16 -20 16 -39
-16z m44 -29 c20 -39 19 -73 -4 -101 l-20 -24 -15 37 c-9 20 -14 43 -11 50 28
80 28 80 50 38z m128 -122 c45 -23 -43 -59 -96 -39 -33 13 -31 31 4 48 24 12
57 9 92 -9z"/>
<path d="M220 301 c0 -13 29 -35 37 -28 7 8 -15 37 -28 37 -5 0 -9 -4 -9 -9z"/>
</g>
</svg>
