<?xml version="1.0" standalone="no"?>
<!DOCTYPE svg PUBLIC "-//W3C//DTD SVG 20010904//EN"
 "http://www.w3.org/TR/2001/REC-SVG-20010904/DTD/svg10.dtd">
<svg version="1.0" xmlns="http://www.w3.org/2000/svg"
 width="80.000000pt" height="80.000000pt" viewBox="0 0 80.000000 80.000000"
 preserveAspectRatio="xMidYMid meet">

<g transform="translate(0.000000,80.000000) scale(0.100000,-0.100000)"
fill="#000000" stroke="none">
<path d="M390 685 c-14 -8 -35 -14 -47 -15 -13 0 -32 -9 -43 -20 -11 -11 -28
-20 -39 -20 -28 0 -71 -39 -71 -65 0 -12 -6 -25 -13 -28 -8 -3 -29 -56 -48
-117 -18 -62 -39 -115 -46 -117 -7 -3 -13 -20 -13 -39 l0 -34 70 0 c40 0 70 4
70 10 0 6 -28 10 -65 10 -50 0 -65 3 -65 15 0 14 24 21 100 28 28 3 26 4 -12
5 -57 2 -58 8 -27 100 l21 62 189 0 c119 0 189 4 189 10 0 6 -69 10 -186 10
-171 0 -185 1 -182 18 3 15 23 17 215 20 l211 2 11 -31 c6 -18 14 -29 17 -26
12 12 -17 71 -51 104 -19 19 -35 38 -35 44 0 5 -12 15 -27 22 -14 6 -39 24
-54 39 -31 32 -35 33 -69 13z m55 -19 c19 -14 19 -15 1 -35 -20 -22 -8 -28 23
-11 20 10 61 -12 61 -34 0 -8 9 -16 20 -19 11 -3 20 -10 20 -16 0 -8 -57 -11
-181 -11 l-180 0 3 27 c4 35 48 54 79 34 25 -15 37 -7 20 12 -16 20 11 41 42
33 16 -4 26 0 35 14 14 24 31 25 57 6z"/>
<path d="M605 415 c-14 -13 -25 -31 -25 -39 0 -10 -33 -26 -100 -47 -94 -31
-100 -32 -118 -16 -25 22 -75 22 -95 -1 -20 -22 -22 -73 -5 -90 7 -7 13 -27
14 -44 4 -82 112 -91 133 -12 7 26 17 32 106 60 81 25 102 29 112 18 25 -24
54 -27 82 -7 31 23 40 73 17 95 -8 9 -12 24 -9 36 6 26 -37 72 -67 72 -11 0
-32 -11 -45 -25z m80 -15 c9 -10 15 -26 11 -35 -3 -9 4 -29 16 -45 20 -28 20
-30 4 -54 -20 -31 -56 -34 -80 -7 -17 19 -20 18 -129 -18 -98 -33 -112 -41
-115 -62 -5 -33 -20 -49 -48 -49 -32 0 -57 28 -51 58 3 15 -2 31 -14 43 -22
22 -24 39 -6 63 17 23 66 24 82 2 17 -22 26 -21 140 17 89 30 100 36 107 62
12 48 52 60 83 25z"/>
</g>
</svg>
