<?xml version="1.0" standalone="no"?>
<!DOCTYPE svg PUBLIC "-//W3C//DTD SVG 20010904//EN"
 "http://www.w3.org/TR/2001/REC-SVG-20010904/DTD/svg10.dtd">
<svg version="1.0" xmlns="http://www.w3.org/2000/svg"
 width="80.000000pt" height="80.000000pt" viewBox="0 0 80.000000 80.000000"
 preserveAspectRatio="xMidYMid meet">

<g transform="translate(0.000000,80.000000) scale(0.100000,-0.100000)"
fill="#000000" stroke="none">
<path d="M242 659 c-14 -5 -25 -20 -28 -39 -7 -31 -10 -33 -60 -30 -18 1 -38
-6 -48 -15 -20 -20 -21 -68 -2 -85 19 -15 9 -40 -15 -40 -15 0 -19 -7 -19 -38
0 -177 184 -309 390 -280 149 20 269 138 274 268 1 42 -1 45 -27 48 -26 3 -26
4 -12 25 17 24 20 103 5 112 -6 4 -22 -1 -36 -10 -24 -16 -26 -15 -51 9 -32
32 -67 33 -97 2 -13 -13 -37 -26 -53 -29 -15 -4 -38 -9 -50 -13 -19 -5 -22 -2
-25 28 -2 26 -10 37 -35 49 -18 9 -38 21 -45 26 -22 17 -42 21 -66 12z m55
-29 c10 -11 25 -20 35 -20 23 0 50 -29 43 -48 -3 -8 -1 -20 5 -26 10 -13 2
-86 -9 -86 -8 0 -33 63 -42 105 -6 28 -7 29 -14 8 -10 -30 -18 -29 -54 8 -35
35 -39 53 -13 68 24 15 30 14 49 -9z m294 -50 c26 -14 24 -34 -6 -54 -23 -15
-25 -15 -50 8 -24 22 -24 25 -10 40 19 19 38 20 66 6z m-331 -36 c5 -13 16
-24 25 -24 19 0 55 -36 55 -55 0 -11 -11 -15 -39 -15 -44 0 -71 26 -71 67 0
13 -4 23 -10 23 -5 0 -10 -11 -10 -25 0 -20 -5 -25 -26 -25 -14 0 -23 -4 -19
-10 3 -5 19 -10 35 -10 16 0 32 -4 35 -10 4 -6 -15 -10 -50 -10 -50 0 -56 2
-50 19 3 10 -1 24 -10 31 -14 12 -21 51 -10 62 3 3 35 6 71 6 60 0 66 -3 74
-24z m434 -29 c-8 -19 -14 -18 -39 1 -20 15 -20 15 5 34 25 19 25 19 32 -1 4
-10 5 -26 2 -34z m-177 10 c13 -9 20 -22 16 -30 -3 -9 0 -22 7 -30 11 -13 3
-15 -64 -15 -74 0 -76 1 -76 24 0 29 42 66 74 66 12 0 31 -7 43 -15z m93 -45
c0 -32 -9 -36 -41 -20 -25 14 -24 24 4 38 33 16 37 15 37 -18z m43 16 c22 -17
21 -23 -2 -35 -16 -9 -19 -6 -23 19 -5 33 -1 36 25 16z m67 -81 c0 -11 -13
-15 -54 -15 -30 0 -58 -4 -61 -10 -4 -6 15 -10 49 -10 67 0 70 -10 27 -86 -54
-94 -152 -147 -271 -148 -98 0 -166 23 -229 80 -43 38 -91 115 -91 144 0 6 82
10 231 10 151 0 228 3 224 10 -4 6 -92 10 -230 10 -203 0 -247 5 -228 24 3 3
147 6 320 6 272 0 313 -2 313 -15z"/>
</g>
</svg>
