<?xml version="1.0" standalone="no"?>
<!DOCTYPE svg PUBLIC "-//W3C//DTD SVG 20010904//EN"
 "http://www.w3.org/TR/2001/REC-SVG-20010904/DTD/svg10.dtd">
<svg version="1.0" xmlns="http://www.w3.org/2000/svg"
 width="80.000000pt" height="80.000000pt" viewBox="0 0 80.000000 80.000000"
 preserveAspectRatio="xMidYMid meet">

<g transform="translate(0.000000,80.000000) scale(0.100000,-0.100000)"
fill="#000000" stroke="none">
<path d="M287 714 c-4 -4 -7 -22 -7 -41 0 -25 -5 -36 -22 -42 -35 -14 -85 -71
-110 -126 -20 -44 -23 -69 -26 -223 -3 -126 -1 -177 8 -187 10 -12 39 -15 131
-15 73 0 119 4 119 10 0 6 -47 10 -121 10 l-121 0 4 178 c3 176 3 179 33 237
45 88 76 105 191 105 91 0 93 0 119 -31 14 -17 28 -29 32 -26 10 10 -27 57
-52 67 -18 7 -24 18 -27 47 l-3 38 -70 3 c-39 1 -74 0 -78 -4z m133 -44 l0
-30 -60 0 -60 0 0 30 0 30 60 0 60 0 0 -30z"/>
<path d="M539 468 l0 -113 -40 100 c-43 107 -46 111 -55 103 -3 -3 11 -45 30
-93 28 -69 34 -96 30 -126 -6 -35 -9 -38 -43 -41 l-36 -3 0 -105 0 -105 125 0
125 0 0 105 0 105 -36 3 c-55 5 -57 41 -8 165 43 106 43 107 31 107 -5 0 -26
-44 -47 -97 -21 -54 -42 -102 -46 -108 -5 -5 -9 40 -9 103 0 68 -4 112 -10
112 -6 0 -10 -45 -11 -112z m41 -148 c0 -16 -7 -20 -30 -20 -23 0 -30 4 -30
20 0 16 7 20 30 20 23 0 30 -4 30 -20z m-12 -62 c3 -16 -5 -18 -62 -18 -60 0
-66 2 -66 20 0 19 5 21 62 18 50 -2 63 -6 66 -20z m92 2 c0 -16 -7 -20 -35
-20 -19 0 -35 2 -35 4 0 2 -3 11 -6 20 -5 13 2 16 35 16 34 0 41 -3 41 -20z
m-150 -45 c0 -16 -51 -115 -59 -115 -7 0 -11 25 -11 60 l0 60 35 0 c19 0 35
-2 35 -5z m98 -48 c12 -29 22 -56 22 -60 0 -4 -33 -7 -74 -7 l-75 0 26 60 c23
52 30 60 53 60 22 0 30 -8 48 -53z m51 -9 l0 -63 -25 54 c-30 67 -30 71 1 71
24 0 25 -2 24 -62z"/>
<path d="M220 515 c-39 -47 -54 -209 -22 -238 46 -42 82 -6 82 81 l0 62 80 0
c47 0 80 4 80 10 0 6 -33 10 -80 10 l-80 0 0 33 c0 50 -33 74 -60 42z m38
-117 l-3 -113 -25 0 c-24 0 -25 4 -28 60 -5 81 21 165 50 165 5 0 7 -49 6
-112z"/>
</g>
</svg>
