<?xml version="1.0" standalone="no"?>
<!DOCTYPE svg PUBLIC "-//W3C//DTD SVG 20010904//EN"
 "http://www.w3.org/TR/2001/REC-SVG-20010904/DTD/svg10.dtd">
<svg version="1.0" xmlns="http://www.w3.org/2000/svg"
 width="80.000000pt" height="80.000000pt" viewBox="0 0 80.000000 80.000000"
 preserveAspectRatio="xMidYMid meet">

<g transform="translate(0.000000,80.000000) scale(0.100000,-0.100000)"
fill="#000000" stroke="none">
<path d="M194 716 c-16 -12 -20 -29 -22 -115 -4 -101 -4 -101 22 -111 25 -9
26 -13 26 -80 l0 -70 -65 0 -65 0 0 -135 0 -135 135 0 135 0 0 135 0 135 -65
0 -65 0 0 70 c0 67 1 71 26 80 26 10 26 10 22 111 -2 86 -6 103 -22 115 -11 8
-25 14 -31 14 -6 0 -20 -6 -31 -14z m54 -18 c8 -8 12 -45 12 -100 l0 -88 -35
0 -35 0 0 88 c0 85 8 112 35 112 6 0 16 -5 23 -12z m92 -493 l0 -115 -115 0
-115 0 0 115 0 115 115 0 115 0 0 -115z"/>
<path d="M222 665 c0 -16 2 -22 5 -12 2 9 2 23 0 30 -3 6 -5 -1 -5 -18z"/>
<path d="M177 263 c-11 -10 -8 -111 3 -118 6 -4 10 18 10 59 0 66 -1 72 -13
59z"/>
<path d="M260 205 c0 -42 4 -64 10 -60 6 3 10 30 10 60 0 30 -4 57 -10 60 -6
4 -10 -18 -10 -60z"/>
<path d="M526 714 c-13 -12 -16 -38 -16 -120 0 -97 1 -104 20 -104 18 0 20 -7
20 -68 l0 -67 -49 -23 c-39 -17 -54 -32 -70 -65 -24 -49 -26 -73 -10 -114 38
-101 163 -130 241 -56 78 75 46 207 -60 244 -32 11 -32 11 -32 80 0 62 2 69
20 69 19 0 20 7 20 103 0 88 -3 106 -18 120 -23 21 -46 22 -66 1z m62 -106 l3
-98 -31 0 -30 0 0 93 c0 52 3 97 7 101 4 4 16 6 28 4 18 -3 20 -11 23 -100z
m43 -301 c67 -45 75 -139 18 -196 -103 -103 -271 20 -204 150 35 66 123 88
186 46z"/>
<path d="M550 665 c0 -15 4 -24 10 -20 6 3 10 12 10 20 0 8 -4 17 -10 20 -6 4
-10 -5 -10 -20z"/>
<path d="M493 264 c-3 -8 -1 -20 6 -27 8 -8 11 -4 11 16 0 30 -7 35 -17 11z"/>
<path d="M612 255 c0 -16 2 -22 5 -12 2 9 2 23 0 30 -3 6 -5 -1 -5 -18z"/>
<path d="M550 200 c0 -11 5 -20 10 -20 6 0 10 9 10 20 0 11 -4 20 -10 20 -5 0
-10 -9 -10 -20z"/>
<path d="M493 154 c-3 -8 -1 -20 6 -27 8 -8 11 -4 11 16 0 30 -7 35 -17 11z"/>
<path d="M612 145 c0 -16 2 -22 5 -12 2 9 2 23 0 30 -3 6 -5 -1 -5 -18z"/>
</g>
</svg>
