<?xml version="1.0" standalone="no"?>
<!DOCTYPE svg PUBLIC "-//W3C//DTD SVG 20010904//EN"
 "http://www.w3.org/TR/2001/REC-SVG-20010904/DTD/svg10.dtd">
<svg version="1.0" xmlns="http://www.w3.org/2000/svg"
 width="80.000000pt" height="80.000000pt" viewBox="0 0 80.000000 80.000000"
 preserveAspectRatio="xMidYMid meet">

<g transform="translate(0.000000,80.000000) scale(0.100000,-0.100000)"
fill="#000000" stroke="none">
<path d="M335 681 c-88 -24 -159 -82 -196 -159 -32 -66 -32 -178 0 -244 27
-55 93 -120 148 -144 51 -23 175 -23 226 0 86 38 156 129 172 224 6 38 4 45
-19 63 -15 12 -26 31 -26 45 0 21 -4 24 -39 24 -72 0 -130 73 -111 141 6 19 6
37 1 42 -12 12 -120 18 -156 8z m120 -17 c17 -4 20 -12 17 -48 -6 -76 51 -146
121 -146 18 0 27 -5 27 -15 0 -9 11 -27 25 -41 30 -30 31 -55 4 -114 -32 -72
-65 -106 -130 -139 -85 -43 -153 -43 -238 0 -201 101 -201 377 0 478 61 30
122 39 174 25z"/>
<path d="M411 569 c-34 -28 -19 -36 18 -9 17 12 31 23 31 26 0 11 -27 1 -49
-17z"/>
<path d="M242 544 c-29 -20 -28 -50 2 -69 19 -13 29 -14 45 -5 28 14 29 65 2
80 -25 13 -22 13 -49 -6z m48 -19 c10 -12 10 -18 0 -30 -25 -30 -61 -7 -46 30
3 8 12 15 19 15 8 0 20 -7 27 -15z"/>
<path d="M472 448 c-28 -28 -7 -78 33 -78 12 0 26 5 33 12 28 28 7 78 -33 78
-12 0 -26 -5 -33 -12z m58 -33 c0 -20 -5 -25 -25 -25 -20 0 -25 5 -25 25 0 20
5 25 25 25 20 0 25 -5 25 -25z"/>
<path d="M330 414 c0 -6 14 -23 30 -39 17 -16 30 -24 30 -19 0 6 -13 23 -30
39 -16 16 -30 24 -30 19z"/>
<path d="M256 318 c-9 -12 -16 -26 -16 -31 0 -13 29 12 41 35 14 26 -6 23 -25
-4z"/>
<path d="M360 279 c-29 -53 40 -96 74 -47 13 19 14 25 2 43 -19 29 -62 32 -76
4z m65 -24 c0 -22 -31 -33 -47 -17 -17 17 -1 44 24 40 15 -2 23 -10 23 -23z"/>
<path d="M510 283 c0 -8 55 -33 73 -33 18 0 4 19 -17 24 -13 3 -31 9 -40 12
-9 3 -16 2 -16 -3z"/>
</g>
</svg>
