<?xml version="1.0" standalone="no"?>
<!DOCTYPE svg PUBLIC "-//W3C//DTD SVG 20010904//EN"
 "http://www.w3.org/TR/2001/REC-SVG-20010904/DTD/svg10.dtd">
<svg version="1.0" xmlns="http://www.w3.org/2000/svg"
 width="80.000000pt" height="80.000000pt" viewBox="0 0 80.000000 80.000000"
 preserveAspectRatio="xMidYMid meet">

<g transform="translate(0.000000,80.000000) scale(0.100000,-0.100000)"
fill="#000000" stroke="none">
<path d="M439 699 c-6 -13 -8 -38 -5 -62 5 -28 2 -47 -9 -64 -19 -28 -10 -47
9 -20 10 13 27 17 69 17 55 0 57 -1 92 -47 l35 -46 -2 -181 -3 -181 -95 -6
-95 -5 101 -2 c85 -2 103 1 108 14 3 9 6 93 6 188 l0 173 -40 56 c-36 50 -40
61 -40 115 0 68 -5 72 -75 72 -35 0 -47 -5 -56 -21z m116 -9 c3 -6 3 -19 0
-30 -5 -16 -15 -20 -56 -20 -45 0 -49 2 -49 23 0 13 3 27 7 30 10 11 91 8 98
-3z m-5 -85 c0 -11 -12 -15 -50 -15 -38 0 -50 4 -50 15 0 11 12 15 50 15 38 0
50 -4 50 -15z"/>
<path d="M186 642 c-7 -11 -4 -156 4 -167 4 -5 -2 -75 -12 -155 -10 -80 -17
-163 -16 -185 l3 -40 118 -3 c100 -2 118 0 124 13 3 9 -1 92 -10 183 -11 118
-14 192 -8 252 6 55 5 89 -1 98 -12 13 -193 18 -202 4z m34 -37 c0 -14 5 -25
10 -25 6 0 10 11 10 25 0 14 5 25 10 25 6 0 10 -12 10 -26 0 -14 4 -23 10 -19
6 3 10 15 10 26 0 10 5 19 10 19 6 0 10 -12 10 -26 0 -14 4 -23 10 -19 6 3 10
15 10 26 0 30 20 22 21 -8 l2 -28 4 28 c3 16 11 27 20 27 12 0 14 -7 9 -31 -3
-17 -6 -38 -6 -46 0 -11 -17 -13 -82 -11 l-83 3 -3 43 c-2 25 1 42 7 42 6 0
11 -11 11 -25z m150 -100 c0 -12 -16 -15 -84 -15 -78 0 -105 7 -89 24 3 3 44
6 90 6 67 0 83 -3 83 -15z m-6 -66 c15 -76 13 -79 -60 -79 l-66 0 5 30 c4 16
2 32 -3 35 -6 4 -10 -9 -10 -29 0 -27 -4 -36 -16 -36 -12 0 -15 6 -10 23 3 12
6 37 6 55 l0 32 74 0 74 0 6 -31z m-146 -194 c-3 -52 -2 -95 2 -95 7 0 20 98
20 156 l0 34 64 0 c36 0 67 -3 70 -8 2 -4 8 -56 12 -115 l7 -107 -106 0 c-58
0 -108 3 -110 8 -4 7 7 123 18 190 3 17 11 32 17 32 7 0 9 -30 6 -95z"/>
<path d="M457 459 c-33 -25 -29 -38 5 -15 31 22 44 20 84 -11 34 -28 34 -28
34 -110 l0 -83 -69 0 c-39 0 -73 -4 -76 -10 -4 -6 25 -10 79 -10 l86 0 0 93
c0 92 0 93 -32 124 -45 43 -77 50 -111 22z"/>
</g>
</svg>
