<?xml version="1.0" standalone="no"?>
<!DOCTYPE svg PUBLIC "-//W3C//DTD SVG 20010904//EN"
 "http://www.w3.org/TR/2001/REC-SVG-20010904/DTD/svg10.dtd">
<svg version="1.0" xmlns="http://www.w3.org/2000/svg"
 width="80.000000pt" height="80.000000pt" viewBox="0 0 80.000000 80.000000"
 preserveAspectRatio="xMidYMid meet">

<g transform="translate(0.000000,80.000000) scale(0.100000,-0.100000)"
fill="#000000" stroke="none">
<path d="M420 675 c0 -38 -3 -45 -20 -45 -22 0 -45 -34 -34 -52 5 -7 10 -4 15
10 8 21 15 22 114 22 l105 0 0 -40 c0 -44 -13 -53 -25 -17 l-8 22 -4 -22 c-4
-21 -10 -23 -64 -23 -33 0 -59 -4 -59 -10 0 -6 27 -10 60 -10 l60 0 0 -130 c0
-80 4 -130 10 -130 6 0 10 50 10 130 0 80 4 130 10 130 6 0 10 -73 10 -200 l0
-200 -69 0 c-39 0 -73 -4 -76 -10 -7 -11 122 -14 149 -4 14 5 16 38 16 265 l0
259 -24 6 c-21 5 -25 13 -28 47 l-3 42 -72 3 -73 3 0 -46z m130 -10 l0 -35
-55 0 -55 0 0 35 0 35 55 0 55 0 0 -35z"/>
<path d="M190 535 c-7 -8 -9 -22 -6 -31 4 -9 1 -24 -6 -33 -10 -12 -12 -62
-10 -199 l3 -182 129 0 129 0 3 182 c2 111 -1 189 -7 197 -5 8 -9 23 -7 33 7
39 -15 48 -118 48 -74 0 -101 -4 -110 -15z m210 -20 c0 -12 -18 -15 -100 -15
-82 0 -100 3 -100 15 0 12 18 15 100 15 82 0 100 -3 100 -15z m4 -54 c23 -25
7 -33 -33 -18 -25 9 -36 9 -52 -2 -15 -9 -24 -10 -32 -2 -14 14 -50 14 -64 0
-7 -7 -19 -9 -29 -5 -16 6 -16 8 1 26 15 17 31 20 105 20 73 0 90 -3 104 -19z
m-80 -37 c23 14 27 14 55 -2 l31 -17 0 -147 0 -148 -110 0 -110 0 0 148 0 148
33 16 c28 13 35 13 55 0 19 -13 25 -12 46 2z"/>
<path d="M247 340 c-23 -25 -27 -39 -27 -89 l0 -59 40 -4 c22 -2 58 -2 80 0
l40 4 0 59 c0 50 -4 64 -27 89 -17 19 -36 30 -53 30 -17 0 -36 -11 -53 -30z
m97 -15 c9 -14 16 -45 16 -75 l0 -50 -60 0 -60 0 0 52 c0 39 5 57 22 75 28 30
62 29 82 -2z"/>
</g>
</svg>
